<?xml version="1.0" encoding="UTF-8"?>
<svg viewBox="0 0 500 500" version="1.1" xmlns="http://www.w3.org/2000/svg" xmlns:xlink="http://www.w3.org/1999/xlink">
    <title>icon</title>
    <g id="icon" stroke="none" stroke-width="1" fill="none" fill-rule="evenodd">
        <g id="icon-logo" transform="translate(25.8621, 0)" fill-rule="nonzero">
            <g id="shadow" transform="translate(8.6207, 0)">
                <path d="M158.081948,23.4375 C158.081948,10.4492188 168.531158,0 181.519428,0 L220.581897,0 L259.644365,0 C272.632635,0 283.081845,10.4492188 283.081845,23.4375 C283.081845,36.4257812 272.632635,46.875 259.644365,46.875 L244.019377,46.875 L244.019377,93.75 L283.081845,93.75 C300.366988,93.75 314.33182,107.714844 314.33182,125 L283.081845,125 L244.019377,125 L197.144416,125 L158.081948,125 L126.831973,125 C126.831973,107.714844 140.796805,93.75 158.081948,93.75 L197.144416,93.75 L197.144416,46.875 L181.519428,46.875 C168.531158,46.875 158.081948,36.4257812 158.081948,23.4375 Z M361.206782,375 L361.206782,468.75 C361.206782,486.035156 347.241949,500 329.956807,500 L111.206986,500 C93.9218438,500 79.9570115,486.035156 79.9570115,468.75 L79.9570115,375 L361.206782,375 Z" id="shadow-tower" fill="#A9D1A9"></path>
                <path d="M70.1779211,187.5 L122.521628,187.5 L122.521628,312.5 L105.920079,312.5 C105.822423,312.207031 105.822423,312.011719 105.724767,311.71875 L70.1779211,187.5 Z M169.39659,187.5 L263.146513,187.5 L263.146513,312.5 L169.39659,312.5 L169.39659,187.5 Z M310.021475,187.5 L362.365182,187.5 L326.818336,311.71875 C326.72068,312.011719 326.72068,312.207031 326.623024,312.5 L310.021475,312.5 L310.021475,187.5 Z M1.52563344,174.804688 L40.9787262,312.695312 C25.353739,314.355469 13.1467177,327.636719 13.1467177,343.75 C13.1467177,361.035156 27.11155,375 44.3966922,375 L388.146411,375 C405.431553,375 419.396386,361.035156 419.396386,343.75 C419.396386,327.636719 407.189364,314.355469 391.564377,312.695312 L431.01747,174.804688 C438.14637,149.804688 419.396386,125 393.419844,125 L39.123259,125 C13.1467177,125 -5.60326698,149.804688 1.52563344,174.804688 Z" id="shadow-window" fill="#94C693"></path>
            </g>
            <path d="M78.7986108,187.5 L131.142318,187.5 L131.142318,312.5 L114.540769,312.5 C114.443113,312.207031 114.443113,312.011719 114.345457,311.71875 L78.7986108,187.5 Z M178.01728,187.5 L271.767203,187.5 L271.767203,312.5 L178.01728,312.5 L178.01728,187.5 Z M318.642165,187.5 L370.985872,187.5 L335.439026,311.71875 C335.34137,312.011719 335.34137,312.207031 335.243714,312.5 L318.642165,312.5 L318.642165,187.5 Z M356.681034,375 L396.767101,375 C414.052243,375 428.017075,361.035156 428.017075,343.75 C428.017075,327.636719 415.810054,314.355469 400.185067,312.695312 L439.63816,174.804687 C446.76706,149.804687 428.017075,125 402.040534,125 C360.27744,291.666667 345.157606,375 356.681034,375 Z" id="window-pane" fill="#A9D1A9"></path>
            <g id="tower-control-duotone" transform="translate(0, 0)">
                <path d="M70.1779211,187.5 L122.521628,187.5 L122.521628,312.5 L105.920079,312.5 C105.822423,312.207031 105.822423,312.011719 105.724767,311.71875 L70.1779211,187.5 Z M169.39659,187.5 L263.146513,187.5 L263.146513,312.5 L169.39659,312.5 L169.39659,187.5 Z M310.021475,187.5 L362.365182,187.5 L326.818336,311.71875 C326.72068,312.011719 326.72068,312.207031 326.623024,312.5 L310.021475,312.5 L310.021475,187.5 Z M1.52563344,174.804688 L40.9787262,312.695312 C25.353739,314.355469 13.1467177,327.636719 13.1467177,343.75 C13.1467177,361.035156 27.11155,375 44.3966922,375 L388.146411,375 C405.431553,375 419.396386,361.035156 419.396386,343.75 C419.396386,327.636719 407.189364,314.355469 391.564377,312.695312 L431.01747,174.804688 C438.14637,149.804688 419.396386,125 393.419844,125 L39.123259,125 C13.1467177,125 -5.60326698,149.804688 1.52563344,174.804688 Z" id="window" fill="#E06C6C"></path>
                <path d="M153.771603,23.4375 C153.771603,10.4492188 164.220813,0 177.209084,0 L216.271552,0 L255.33402,0 C268.32229,0 278.771501,10.4492188 278.771501,23.4375 C278.771501,36.4257812 268.32229,46.875 255.33402,46.875 L239.709033,46.875 L239.709033,93.75 L278.771501,93.75 C296.056643,93.75 310.021475,107.714844 310.021475,125 L278.771501,125 L239.709033,125 L192.834071,125 L153.771603,125 L122.521628,125 C122.521628,107.714844 136.486461,93.75 153.771603,93.75 L192.834071,93.75 L192.834071,46.875 L177.209084,46.875 C164.220813,46.875 153.771603,36.4257812 153.771603,23.4375 Z M356.896437,375 L356.896437,468.75 C356.896437,486.035156 342.931604,500 325.646462,500 L106.896641,500 C89.611499,500 75.6466666,486.035156 75.6466666,468.75 L75.6466666,375 L356.896437,375 Z" id="tower" fill="#FFEEE0"></path>
            </g>
        </g>
    </g>
</svg>