<?xml version="1.0" encoding="UTF-8"?>
<svg width="500px" height="500px" viewBox="0 0 500 500" version="1.1" xmlns="http://www.w3.org/2000/svg" xmlns:xlink="http://www.w3.org/1999/xlink">
    <title>icon-admin</title>
    <defs>
        <path d="M32.9274145,41.8301286 L30.7175209,36.0212655 L11.9018555,36.0212655 L9.69196188,41.9564083 C8.82905105,44.2715349 8.09241985,45.8342454 7.48206829,46.6445397 C6.87171673,47.454834 5.87200296,47.8599811 4.48292699,47.8599811 C3.30431708,47.8599811 2.2625101,47.4285257 1.35750606,46.5656149 C0.45250202,45.7027041 -4.48914237e-15,44.7240369 -4.48914237e-15,43.6296134 C-4.48914237e-15,42.9982152 0.105233028,42.3457705 0.315699084,41.6722791 C0.52616514,40.9987877 0.873434133,40.0622138 1.35750606,38.8625572 L13.1962217,8.80800445 C13.5329674,7.94509362 13.9381146,6.90854829 14.4116632,5.69836847 C14.8852118,4.48818864 15.3903303,3.48321323 15.9270188,2.68344221 C16.4637072,1.8836712 17.1687685,1.23648808 18.0422027,0.741892848 C18.9156368,0.247297616 19.9942753,-1.36197994e-13 21.2781183,-1.36197994e-13 C22.5830078,-1.36197994e-13 23.6721697,0.247297616 24.5456038,0.741892848 C25.4190379,1.23648808 26.1240992,1.8731479 26.6607876,2.65187231 C27.1974761,3.43059671 27.6499781,4.26719929 28.0182937,5.16168002 C28.3866093,6.05616076 28.8548963,7.25055563 29.4231546,8.74486463 L41.5144296,38.609998 C42.4615268,40.8830314 42.9350754,42.5351899 42.9350754,43.5664736 C42.9350754,44.6398505 42.4878351,45.6237793 41.5933543,46.51826 C40.6988736,47.4127408 39.620235,47.8599811 38.3574387,47.8599811 C37.6208075,47.8599811 36.9894093,47.7284399 36.4632442,47.4653573 C35.9370791,47.2022747 35.4951004,46.8444824 35.1373081,46.3919804 C34.7795158,45.9394784 34.3954152,45.2449404 33.9850064,44.3083664 C33.5745976,43.3717925 33.2220669,42.5457132 32.9274145,41.8301286 Z M14.3643083,28.9811759 L28.1919282,28.9811759 L21.2149784,9.88138133 L14.3643083,28.9811759 Z" id="path-1"></path>
        <filter x="-1.2%" y="-1.0%" width="102.3%" height="104.2%" filterUnits="objectBoundingBox" id="filter-2">
            <feOffset dx="0" dy="1" in="SourceAlpha" result="shadowOffsetOuter1"></feOffset>
            <feColorMatrix values="0 0 0 0 0.709803922   0 0 0 0 0.380392157   0 0 0 0 0.247058824  0 0 0 1 0" type="matrix" in="shadowOffsetOuter1"></feColorMatrix>
        </filter>
        <path d="M72.8317787,42.9350754 L72.8317787,42.0826879 C71.6742154,43.4086241 70.532437,44.4872626 69.4064436,45.3186035 C68.2804502,46.1499444 67.0597471,46.7813426 65.7443343,47.212798 C64.4289214,47.6442534 62.9924906,47.8599811 61.4350418,47.8599811 C59.3724744,47.8599811 57.4624949,47.4232641 55.7051034,46.5498299 C53.9477118,45.6763958 52.4270946,44.4293844 51.1432516,42.8087958 C49.8594087,41.1882072 48.8860032,39.2834894 48.2230351,37.0946424 C47.560067,34.9057954 47.228583,32.5380523 47.228583,29.991413 C47.228583,24.603482 48.5439958,20.4046841 51.1748215,17.3950195 C53.8056472,14.3853549 57.2678138,12.8805226 61.5613214,12.8805226 C64.0448209,12.8805226 66.1389581,13.3067164 67.8437332,14.1591039 C69.5485082,15.0114914 71.2111901,16.3216426 72.8317787,18.0895575 L72.8317787,5.36688443 C72.8317787,3.59896956 73.1843093,2.2625101 73.8893706,1.35750606 C74.5944319,0.45250202 75.5994073,-1.3946462e-13 76.9042969,-1.3946462e-13 C78.2091864,-1.3946462e-13 79.2141618,0.415670461 79.9192231,1.24701138 C80.6242844,2.0783523 80.9768151,3.30431708 80.9768151,4.92490571 L80.9768151,42.9350754 C80.9768151,44.5767107 80.5979762,45.8079371 79.8402984,46.6287547 C79.0826206,47.4495723 78.1039534,47.8599811 76.9042969,47.8599811 C75.725687,47.8599811 74.7522815,47.4337874 73.9840803,46.5813999 C73.2158792,45.7290123 72.8317787,44.5135709 72.8317787,42.9350754 Z M55.8787379,30.2755422 C55.8787379,32.6117154 56.2417918,34.6006196 56.9678997,36.2422548 C57.6940076,37.8838901 58.6884597,39.1203782 59.9512561,39.9517191 C61.2140524,40.78306 62.5926051,41.1987305 64.0869141,41.1987305 C65.6022697,41.1987305 66.986084,40.8041066 68.238357,40.0148589 C69.4906301,39.2256112 70.4903438,38.0154314 71.2374983,36.3843194 C71.9846528,34.7532075 72.3582301,32.7169484 72.3582301,30.2755422 C72.3582301,27.9814621 71.9846528,26.0083429 71.2374983,24.3561843 C70.4903438,22.7040258 69.4801067,21.4412295 68.2067871,20.5677953 C66.9334675,19.6943612 65.5391298,19.2576441 64.0237742,19.2576441 C62.4452788,19.2576441 61.0351562,19.7048845 59.7934065,20.5993652 C58.5516568,21.493846 57.5887746,22.7776889 56.9047599,24.4508941 C56.2207452,26.1240992 55.8787379,28.0656486 55.8787379,30.2755422 Z" id="path-3"></path>
        <filter x="-1.5%" y="-1.0%" width="103.0%" height="104.2%" filterUnits="objectBoundingBox" id="filter-4">
            <feOffset dx="0" dy="1" in="SourceAlpha" result="shadowOffsetOuter1"></feOffset>
            <feColorMatrix values="0 0 0 0 0.709803922   0 0 0 0 0.380392157   0 0 0 0 0.247058824  0 0 0 1 0" type="matrix" in="shadowOffsetOuter1"></feColorMatrix>
        </filter>
        <path d="M118.292447,30.9700801 L118.292447,42.4299569 C118.292447,44.239965 117.882038,45.597471 117.06122,46.5024751 C116.240403,47.4074791 115.156503,47.8599811 113.80952,47.8599811 C112.50463,47.8599811 111.447038,47.4074791 110.636744,46.5024751 C109.82645,45.597471 109.421303,44.239965 109.421303,42.4299569 L109.421303,28.6970467 C109.421303,26.5292464 109.347639,24.8455179 109.200313,23.6458614 C109.052987,22.4462049 108.653101,21.4622761 108.000657,20.694075 C107.348212,19.9258739 106.316928,19.5417733 104.906806,19.5417733 C102.08656,19.5417733 100.229198,20.5099172 99.3347168,22.4462049 C98.4402361,24.3824926 97.9929957,27.1606445 97.9929957,30.7806607 L97.9929957,42.4299569 C97.9929957,44.2189184 97.5878485,45.5711628 96.7775542,46.4866901 C95.9672599,47.4022175 94.8991447,47.8599811 93.5732085,47.8599811 C92.268319,47.8599811 91.2002037,47.4022175 90.3688628,46.4866901 C89.5375219,45.5711628 89.1218514,44.2189184 89.1218514,42.4299569 L89.1218514,17.7738584 C89.1218514,16.1532698 89.4954287,14.9220434 90.2425832,14.0801791 C90.9897377,13.2383149 91.9736665,12.8173828 93.1943696,12.8173828 C94.3729795,12.8173828 95.3569083,13.2120067 96.146156,14.0012544 C96.9354038,14.7905021 97.3300276,15.8796639 97.3300276,17.2687399 L97.3300276,18.0895575 C98.8243366,16.300596 100.423879,14.9851832 102.128654,14.143319 C103.833429,13.3014547 105.727623,12.8805226 107.811237,12.8805226 C109.979038,12.8805226 111.841662,13.311978 113.399111,14.1748889 C114.95656,15.0377997 116.240403,16.3426893 117.25064,18.0895575 C118.702856,16.3216426 120.260304,15.0114914 121.922986,14.1591039 C123.585668,13.3067164 125.427246,12.8805226 127.44772,12.8805226 C129.80494,12.8805226 131.835938,13.343548 133.540713,14.2695986 C135.245488,15.1956492 136.518807,16.5215854 137.360671,18.2474071 C138.097303,19.8048559 138.465618,22.2567854 138.465618,25.6031957 L138.465618,42.4299569 C138.465618,44.239965 138.055209,45.597471 137.234392,46.5024751 C136.413574,47.4074791 135.329674,47.8599811 133.982691,47.8599811 C132.677802,47.8599811 131.609686,47.4022175 130.778346,46.4866901 C129.947005,45.5711628 129.531334,44.2189184 129.531334,42.4299569 L129.531334,27.9393689 C129.531334,26.0872676 129.452409,24.603482 129.29456,23.4880119 C129.13671,22.3725418 128.710517,21.4359678 128.015979,20.67829 C127.321441,19.9206122 126.26911,19.5417733 124.858988,19.5417733 C123.722471,19.5417733 122.643833,19.878519 121.623072,20.5520104 C120.602312,21.2255018 119.807802,22.1305058 119.239544,23.2670225 C118.608146,24.7192383 118.292447,27.2869242 118.292447,30.9700801 Z" id="path-5"></path>
        <filter x="-1.0%" y="-1.4%" width="102.0%" height="105.7%" filterUnits="objectBoundingBox" id="filter-6">
            <feOffset dx="0" dy="1" in="SourceAlpha" result="shadowOffsetOuter1"></feOffset>
            <feColorMatrix values="0 0 0 0 0.709803922   0 0 0 0 0.380392157   0 0 0 0 0.247058824  0 0 0 1 0" type="matrix" in="shadowOffsetOuter1"></feColorMatrix>
        </filter>
        <path d="M155.450229,17.7107186 L155.450229,42.6193763 C155.450229,44.345198 155.03982,45.6500876 154.219003,46.534045 C153.398185,47.4180024 152.356378,47.8599811 151.093582,47.8599811 C149.830785,47.8599811 148.804763,47.4074791 148.015516,46.5024751 C147.226268,45.597471 146.831644,44.3031048 146.831644,42.6193763 L146.831644,17.9632779 C146.831644,16.2585028 147.226268,14.9746599 148.015516,14.1117491 C148.804763,13.2488382 149.830785,12.8173828 151.093582,12.8173828 C152.356378,12.8173828 153.398185,13.2488382 154.219003,14.1117491 C155.03982,14.9746599 155.450229,16.1743164 155.450229,17.7107186 Z M151.188291,8.80800445 C149.988635,8.80800445 148.962613,8.43968885 148.110225,7.70305765 C147.257838,6.96642645 146.831644,5.92461948 146.831644,4.57763672 C146.831644,3.35693359 147.268361,2.35195818 148.141795,1.56271047 C149.015229,0.773462756 150.030728,0.378838901 151.188291,0.378838901 C152.303761,0.378838901 153.292952,0.736631196 154.155863,1.45221579 C155.018774,2.16780038 155.450229,3.20960735 155.450229,4.57763672 C155.450229,5.90357287 155.029297,6.9401182 154.187433,7.6872727 C153.345568,8.4344272 152.345855,8.80800445 151.188291,8.80800445 Z" id="path-7"></path>
        <filter x="-5.8%" y="-1.1%" width="111.6%" height="104.2%" filterUnits="objectBoundingBox" id="filter-8">
            <feOffset dx="0" dy="1" in="SourceAlpha" result="shadowOffsetOuter1"></feOffset>
            <feColorMatrix values="0 0 0 0 0.709803922   0 0 0 0 0.380392157   0 0 0 0 0.247058824  0 0 0 1 0" type="matrix" in="shadowOffsetOuter1"></feColorMatrix>
        </filter>
        <path d="M172.18228,17.584439 L172.18228,18.626246 C173.697636,16.6268184 175.355056,15.1588177 177.154541,14.2222437 C178.954026,13.2856698 181.021855,12.8173828 183.358028,12.8173828 C185.631061,12.8173828 187.662059,13.311978 189.45102,14.3011685 C191.239982,15.290359 192.576441,16.6899582 193.460399,18.4999663 C194.028657,19.5522966 194.396973,20.6888133 194.565346,21.9095164 C194.733718,23.1302196 194.817905,24.6876684 194.817905,26.5818629 L194.817905,42.6193763 C194.817905,44.345198 194.423281,45.6500876 193.634033,46.534045 C192.844785,47.4180024 191.818763,47.8599811 190.555967,47.8599811 C189.272124,47.8599811 188.230317,47.4074791 187.430546,46.5024751 C186.630775,45.597471 186.23089,44.3031048 186.23089,42.6193763 L186.23089,28.255068 C186.23089,25.4137763 185.836266,23.2407142 185.047018,21.7358819 C184.25777,20.2310496 182.684537,19.4786335 180.327317,19.4786335 C178.790915,19.4786335 177.391315,19.9363972 176.128519,20.8519245 C174.865723,21.7674518 173.939672,23.0249865 173.350367,24.6245286 C172.929435,25.9083715 172.718969,28.3076845 172.718969,31.8224677 L172.718969,42.6193763 C172.718969,44.3662446 172.313822,45.6763958 171.503527,46.5498299 C170.693233,47.4232641 169.646164,47.8599811 168.362322,47.8599811 C167.120572,47.8599811 166.099811,47.4074791 165.30004,46.5024751 C164.500269,45.597471 164.100384,44.3031048 164.100384,42.6193763 L164.100384,17.7107186 C164.100384,16.0690834 164.458176,14.8431186 165.173761,14.0328243 C165.889345,13.22253 166.868013,12.8173828 168.109762,12.8173828 C168.86744,12.8173828 169.551455,12.996279 170.161806,13.3540713 C170.772158,13.7118636 171.261491,14.248552 171.629807,14.9641366 C171.998123,15.6797212 172.18228,16.5531553 172.18228,17.584439 Z" id="path-9"></path>
        <filter x="-1.6%" y="-1.4%" width="103.3%" height="105.7%" filterUnits="objectBoundingBox" id="filter-10">
            <feOffset dx="0" dy="1" in="SourceAlpha" result="shadowOffsetOuter1"></feOffset>
            <feColorMatrix values="0 0 0 0 0.709803922   0 0 0 0 0.380392157   0 0 0 0 0.247058824  0 0 0 1 0" type="matrix" in="shadowOffsetOuter1"></feColorMatrix>
        </filter>
    </defs>
    <g id="icon-admin" stroke="none" stroke-width="1" fill="none" fill-rule="evenodd">
        <g id="icon-logo" transform="translate(25.8621, 0)" fill-rule="nonzero">
            <g transform="translate(-0, 0)">
                <g id="shadow" transform="translate(8.6207, 0)">
                    <path d="M158.081948,23.4375 C158.081948,10.4492188 168.531158,0 181.519428,0 L220.581897,0 L259.644365,0 C272.632635,0 283.081845,10.4492188 283.081845,23.4375 C283.081845,36.4257812 272.632635,46.875 259.644365,46.875 L244.019377,46.875 L244.019377,93.75 L283.081845,93.75 C300.366988,93.75 314.33182,107.714844 314.33182,125 L283.081845,125 L244.019377,125 L197.144416,125 L158.081948,125 L126.831973,125 C126.831973,107.714844 140.796805,93.75 158.081948,93.75 L197.144416,93.75 L197.144416,46.875 L181.519428,46.875 C168.531158,46.875 158.081948,36.4257812 158.081948,23.4375 Z M361.206782,375 L361.206782,468.75 C361.206782,486.035156 347.241949,500 329.956807,500 L111.206986,500 C93.9218438,500 79.9570115,486.035156 79.9570115,468.75 L79.9570115,375 L361.206782,375 Z" id="shadow-tower" fill="#A9D1A9"></path>
                    <path d="M70.1779211,187.5 L122.521628,187.5 L122.521628,312.5 L105.920079,312.5 C105.822423,312.207031 105.822423,312.011719 105.724767,311.71875 L70.1779211,187.5 Z M169.39659,187.5 L263.146513,187.5 L263.146513,312.5 L169.39659,312.5 L169.39659,187.5 Z M310.021475,187.5 L362.365182,187.5 L326.818336,311.71875 C326.72068,312.011719 326.72068,312.207031 326.623024,312.5 L310.021475,312.5 L310.021475,187.5 Z M1.52563344,174.804688 L40.9787262,312.695312 C25.353739,314.355469 13.1467177,327.636719 13.1467177,343.75 C13.1467177,361.035156 27.11155,375 44.3966922,375 L388.146411,375 C405.431553,375 419.396386,361.035156 419.396386,343.75 C419.396386,327.636719 407.189364,314.355469 391.564377,312.695312 L431.01747,174.804688 C438.14637,149.804688 419.396386,125 393.419844,125 L39.123259,125 C13.1467177,125 -5.60326698,149.804688 1.52563344,174.804688 Z" id="shadow-window" fill="#94C693"></path>
                </g>
                <path d="M78.7986108,187.5 L131.142318,187.5 L131.142318,312.5 L114.540769,312.5 C114.443113,312.207031 114.443113,312.011719 114.345457,311.71875 L78.7986108,187.5 Z M178.01728,187.5 L271.767203,187.5 L271.767203,312.5 L178.01728,312.5 L178.01728,187.5 Z M318.642165,187.5 L370.985872,187.5 L335.439026,311.71875 C335.34137,312.011719 335.34137,312.207031 335.243714,312.5 L318.642165,312.5 L318.642165,187.5 Z M356.681034,375 L396.767101,375 C414.052243,375 428.017075,361.035156 428.017075,343.75 C428.017075,327.636719 415.810054,314.355469 400.185067,312.695312 L439.63816,174.804687 C446.76706,149.804687 428.017075,125 402.040534,125 C360.27744,291.666667 345.157606,375 356.681034,375 Z" id="window-pane" fill="#A9D1A9"></path>
                <g id="tower-control-duotone" transform="translate(0, 0)">
                    <path d="M70.1779211,187.5 L122.521628,187.5 L122.521628,312.5 L105.920079,312.5 C105.822423,312.207031 105.822423,312.011719 105.724767,311.71875 L70.1779211,187.5 Z M169.39659,187.5 L263.146513,187.5 L263.146513,312.5 L169.39659,312.5 L169.39659,187.5 Z M310.021475,187.5 L362.365182,187.5 L326.818336,311.71875 C326.72068,312.011719 326.72068,312.207031 326.623024,312.5 L310.021475,312.5 L310.021475,187.5 Z M1.52563344,174.804688 L40.9787262,312.695312 C25.353739,314.355469 13.1467177,327.636719 13.1467177,343.75 C13.1467177,361.035156 27.11155,375 44.3966922,375 L388.146411,375 C405.431553,375 419.396386,361.035156 419.396386,343.75 C419.396386,327.636719 407.189364,314.355469 391.564377,312.695312 L431.01747,174.804688 C438.14637,149.804688 419.396386,125 393.419844,125 L39.123259,125 C13.1467177,125 -5.60326698,149.804688 1.52563344,174.804688 Z" id="window" fill="#E06C6C"></path>
                    <path d="M153.771603,23.4375 C153.771603,10.4492188 164.220813,0 177.209084,0 L216.271552,0 L255.33402,0 C268.32229,0 278.771501,10.4492188 278.771501,23.4375 C278.771501,36.4257812 268.32229,46.875 255.33402,46.875 L239.709033,46.875 L239.709033,93.75 L278.771501,93.75 C296.056643,93.75 310.021475,107.714844 310.021475,125 L278.771501,125 L239.709033,125 L192.834071,125 L153.771603,125 L122.521628,125 C122.521628,107.714844 136.486461,93.75 153.771603,93.75 L192.834071,93.75 L192.834071,46.875 L177.209084,46.875 C164.220813,46.875 153.771603,36.4257812 153.771603,23.4375 Z M356.896437,375 L356.896437,468.75 C356.896437,486.035156 342.931604,500 325.646462,500 L106.896641,500 C89.611499,500 75.6466666,486.035156 75.6466666,468.75 L75.6466666,375 L356.896437,375 Z" id="tower" fill="#FFEEE0"></path>
                </g>
            </g>
            <g id="admin-banner" transform="translate(310.3448, 407.3276) rotate(-30) translate(-310.3448, -407.3276)translate(17.2414, 349.1379)">
                <g id="999---Utility/Containers/Compact/Rounded-Copy" transform="translate(0, 8.6207)" fill="#B28320">
                    <path d="M3,0 L581.206897,-8.8817842e-16 C583.96832,-1.39544373e-15 586.206897,2.23857625 586.206897,5 L586.206897,104.758621 C586.206897,106.415475 584.863751,107.758621 583.206897,107.758621 L5,107.758621 C2.23857625,107.758621 1.69088438e-16,105.520044 0,102.758621 L-4.4408921e-16,3 C-6.46995335e-16,1.34314575 1.34314575,2.02906125e-16 3,0 Z" id="Rectangle"></path>
                </g>
                <g id="999---Utility/Containers/Compact/Rounded" fill="#EDAE2A">
                    <path d="M3,0 L581.206897,-8.8817842e-16 C583.96832,-1.39544373e-15 586.206897,2.23857625 586.206897,5 L586.206897,104.758621 C586.206897,106.415475 584.863751,107.758621 583.206897,107.758621 L5,107.758621 C2.23857625,107.758621 1.69088438e-16,105.520044 0,102.758621 L-4.4408921e-16,3 C-6.46995335e-16,1.34314575 1.34314575,2.02906125e-16 3,0 Z" id="Rectangle"></path>
                </g>
                <g id="Admin" transform="translate(187.0812, 30.5155)">
                    <g id="Shape">
                        <use fill="black" fill-opacity="1" filter="url(#filter-2)" xlink:href="#path-1"></use>
                        <use fill="#2C2E33" xlink:href="#path-1"></use>
                        <use fill="#FDF7F7" xlink:href="#path-1"></use>
                    </g>
                    <g id="Shape">
                        <use fill="black" fill-opacity="1" filter="url(#filter-4)" xlink:href="#path-3"></use>
                        <use fill="#2C2E33" xlink:href="#path-3"></use>
                        <use fill="#FDF7F7" xlink:href="#path-3"></use>
                    </g>
                    <g id="Path">
                        <use fill="black" fill-opacity="1" filter="url(#filter-6)" xlink:href="#path-5"></use>
                        <use fill="#2C2E33" xlink:href="#path-5"></use>
                        <use fill="#FDF7F7" xlink:href="#path-5"></use>
                    </g>
                    <g id="Shape">
                        <use fill="black" fill-opacity="1" filter="url(#filter-8)" xlink:href="#path-7"></use>
                        <use fill="#2C2E33" xlink:href="#path-7"></use>
                        <use fill="#FDF7F7" xlink:href="#path-7"></use>
                    </g>
                    <g id="Path">
                        <use fill="black" fill-opacity="1" filter="url(#filter-10)" xlink:href="#path-9"></use>
                        <use fill="#2C2E33" xlink:href="#path-9"></use>
                        <use fill="#FDF7F7" xlink:href="#path-9"></use>
                    </g>
                </g>
            </g>
        </g>
    </g>
</svg>